<svg width="2340" height="1559.9999999999998" xmlns="http://www.w3.org/2000/svg" xml:space="preserve" enable-background="new 0 0 2340 1560" version="1.1">
 <defs>
  <linearGradient y2="0.5" x2="0.00106" y1="0.5" x1="1.00296" id="SVGID_1_">
   <stop stop-color="#F6B035" offset="0"/>
   <stop stop-color="#E65221" offset="0.3011"/>
   <stop stop-color="#A3195C" offset="0.6505"/>
   <stop stop-color="#282B5C" offset="1"/>
  </linearGradient>
 </defs>
 <g>
  <title>Layer 1</title>
  <g stroke="null" id="svg_27">
   <path stroke="null" id="svg_28" d="m1784.29548,387.57146c-161.84556,-161.82746 -413.32923,-190.93541 -607.09864,-73.41243c-76.63171,-46.58254 -164.85281,-71.48862 -256.97841,-71.48862c-132.4868,0 -256.91635,51.45929 -350.35553,144.90622c-193.1902,193.18761 -193.1902,507.52086 0,700.71106c95.71982,95.7224 222.7791,145.02517 350.74856,145.02517c88.41762,0 177.24379,-23.62871 256.42764,-71.68773c78.63826,47.67891 167.76438,71.54809 256.90343,71.54809c126.88862,0 253.77207,-48.2969 350.35553,-144.88554c93.44693,-93.44693 144.91398,-217.8739 144.91398,-350.35553c-0.00259,-132.48938 -51.46964,-256.91635 -144.91657,-350.3607zm-1161.04689,647.32278c-163.74869,-163.74093 -163.74869,-430.18324 0,-593.92417c79.18386,-79.18903 184.64942,-122.79794 296.96984,-122.79794c112.31267,0 217.78599,43.60116 296.97501,122.79018l415.40301,415.41077c-9.69662,16.21791 -21.46184,31.35498 -35.16122,45.05435c-13.64766,13.65542 -28.72008,25.38445 -44.88628,35.06296l-415.44955,-415.43921c-57.84613,-57.85389 -134.87604,-89.71309 -216.88097,-89.71309c-82.01268,0 -159.03484,31.8592 -216.88873,89.70533c-57.85389,57.8513 -89.71309,134.87604 -89.71309,216.88097c0,82.01268 31.86179,159.0426 89.71309,216.88873c58.50809,58.51584 137.53938,89.55018 217.55844,89.53984c34.1476,0 68.44518,-5.75333 101.42918,-17.33238l61.26192,61.26451c8.52268,8.52009 17.28325,16.64715 26.25068,24.4122c-159.83643,80.9551 -357.07593,51.71787 -486.58134,-77.80306zm1038.21016,-256.4354l-268.00411,-268.01187c73.18747,-12.79178 150.12947,10.12327 203.99093,63.98991c43.58047,43.58564 67.59187,101.65415 67.59187,163.49011c-0.00259,13.74075 -1.2541,27.27981 -3.5787,40.53185zm-186.76457,186.95851c-13.3141,2.3427 -26.93073,3.61231 -40.75423,3.61231c-61.83855,0 -119.90447,-24.00882 -163.4927,-67.6048l-390.99081,-390.97788c13.32186,-2.35046 26.94108,-3.61231 40.7594,-3.61231c61.83855,0 119.90447,24.00365 163.49528,67.59705l390.98305,390.98564zm-782.00231,-268.01187l268.01187,268.01445c-73.19523,12.79695 -150.13722,-10.13102 -203.98835,-63.99249c-43.59081,-43.59081 -67.59963,-101.65932 -67.59963,-163.50304c0,-13.73299 1.25927,-27.26688 3.57611,-40.51892zm1038.21016,337.48877c-163.7461,163.75386 -430.18065,163.75386 -593.93451,0l-415.40818,-415.39525c9.69662,-16.22826 21.45667,-31.3679 35.15605,-45.06987c13.65542,-13.65025 28.72784,-25.37928 44.89145,-35.05003l415.44438,415.4418c57.85647,57.8513 134.87863,89.7105 216.88873,89.7105c82.01527,0 159.03225,-31.86179 216.88355,-89.7105c57.8513,-57.85389 89.71309,-134.8838 89.71309,-216.89648c0,-82.00492 -31.86179,-159.02967 -89.71309,-216.8758c-83.48915,-83.49174 -208.7565,-110.98875 -319.02641,-72.26176l-61.21797,-61.21797c-8.49424,-8.49165 -17.25222,-16.62646 -26.23775,-24.4122c159.84418,-80.94735 357.063,-51.70235 486.56065,77.80306c79.1942,79.18386 122.8057,184.652 122.8057,296.96984c0,112.32042 -43.6115,217.78081 -122.8057,296.96467z" fill="url(#SVGID_1_)"/>
   <path stroke="null" id="svg_29" d="m857.60157,595.37639c19.46563,-8.52268 40.67148,-13.03742 62.61428,-13.03742c11.97467,0 23.72439,1.37821 35.10692,3.97432l-75.86632,-75.85856c-27.62113,4.86899 -53.94421,14.61474 -77.8496,28.92953l55.99472,55.99214z" fill="#321E4C" opacity="0.7"/>
   <path stroke="null" id="svg_30" d="m768.67197,773.38557c-2.65299,-11.48338 -4.05448,-23.35721 -4.05448,-35.46117c0,-21.86005 4.48889,-43.00902 12.95468,-62.41259l-56.01541,-56.01541c-14.29669,23.93125 -24.02951,50.26467 -28.86747,77.90649l75.98268,75.98268z" fill="#321E4C" opacity="0.7"/>
   <path stroke="null" id="svg_31" d="m1585.47608,702.47616c2.65041,11.49114 4.05448,23.35204 4.05448,35.44824c0,21.87298 -4.4863,43.01419 -12.95468,62.43328l56.02058,56.01541c14.29152,-23.939 24.02692,-50.27501 28.8623,-77.91425l-75.98268,-75.98268z" fill="#BE1726" opacity="0.7"/>
   <path stroke="null" id="svg_32" d="m1496.54906,880.49309c-19.46305,8.52009 -40.67148,13.03742 -62.60911,13.03742c-11.9695,0 -23.72439,-1.37821 -35.10692,-3.97432l75.86115,75.86115c27.6263,-4.86899 53.95197,-14.61732 77.85477,-28.92953l-55.99989,-55.99472z" fill="#BE1726" opacity="0.7"/>
  </g>
 </g>
</svg>