<svg width="1080" height="1080" xmlns="http://www.w3.org/2000/svg" preserveAspectRatio="xMidYMid meet" version="1.0">

 <g>
  <title>Layer 1</title>
  <g id="svg_1" fill="#000000" transform="translate(0 1080) scale(0.1 -0.1)">
   <path fill="#4c4c4c" id="svg_2" d="m4560,9756c-123,-14 -287,-47 -385,-76c-33,-10 -76,-21 -95,-25c-19,-4 -51,-16 -70,-25c-20,-10 -54,-22 -75,-25c-22,-4 -54,-16 -71,-26c-17,-11 -36,-19 -43,-19c-15,0 -231,-104 -316,-153c-87,-50 -227,-141 -280,-183c-22,-18 -54,-40 -71,-50c-55,-33 -87,-57 -174,-128c-81,-66 -95,-78 -147,-125c-12,-11 -32,-25 -44,-31c-20,-11 -78,-55 -164,-125c-77,-62 -199,-177 -256,-240c-35,-38 -99,-108 -144,-155c-100,-105 -147,-162 -183,-220c-16,-25 -37,-58 -48,-75c-10,-16 -27,-46 -36,-65c-10,-19 -22,-42 -27,-50c-16,-24 -71,-170 -71,-188c0,-8 -9,-43 -19,-76c-10,-34 -32,-103 -47,-153c-25,-81 -33,-96 -67,-120c-21,-16 -53,-39 -72,-53c-19,-14 -50,-36 -70,-50c-109,-77 -327,-294 -391,-390c-13,-19 -34,-49 -46,-66c-65,-91 -89,-127 -123,-190c-21,-38 -44,-76 -50,-84c-7,-8 -18,-32 -24,-52c-7,-20 -19,-42 -27,-48c-7,-7 -14,-20 -14,-29c0,-9 -11,-37 -25,-63c-14,-26 -25,-53 -25,-60c0,-7 -12,-35 -25,-63c-14,-27 -25,-59 -25,-70c0,-11 -9,-39 -20,-63c-10,-23 -22,-59 -26,-80c-3,-20 -14,-66 -25,-102c-25,-88 -39,-231 -39,-397c1,-136 21,-361 36,-385c4,-6 15,-43 25,-82c32,-130 59,-198 137,-351c19,-38 44,-88 54,-109c11,-21 24,-44 29,-50c10,-11 43,-61 65,-98c20,-34 53,-64 114,-104c34,-22 63,-50 68,-64c5,-14 5,-83 1,-155c-22,-365 -29,-607 -34,-1345l-7,-805l88,-105c126,-151 517,-537 669,-661c479,-389 925,-654 1465,-869c1693,-673 3628,-441 5115,615c784,557 1424,1339 1810,2210c82,186 187,464 217,578l23,86l-18,98c-10,54 -23,150 -28,213c-37,441 -59,631 -83,713c-9,28 -22,84 -30,122c-7,39 -28,124 -46,190c-17,66 -38,145 -45,175c-7,30 -20,72 -29,92c-9,21 -16,46 -16,56c0,10 -15,47 -33,82c-31,59 -47,86 -115,192c-31,49 -84,88 -177,132c-44,21 -91,44 -105,51c-14,7 -50,18 -80,25c-30,7 -63,17 -72,22c-10,4 -41,13 -70,18c-29,5 -87,19 -128,29c-179,48 -446,89 -743,116c-75,6 -140,14 -143,18c-3,3 -12,50 -20,104c-8,54 -19,112 -24,128c-5,17 -14,84 -20,149c-6,65 -15,140 -21,165c-6,25 -17,93 -25,151c-8,58 -21,128 -28,155c-8,28 -18,77 -22,110c-3,33 -15,86 -25,119c-11,32 -19,69 -19,83c0,36 -101,346 -131,402c-10,20 -19,41 -19,47c0,12 -35,89 -65,144c-37,67 -75,151 -75,164c0,30 -54,161 -132,320c-63,130 -75,152 -111,204c-18,26 -52,86 -75,134c-24,48 -47,90 -52,93c-6,4 -16,21 -24,38c-29,67 -375,373 -513,452c-15,9 -44,26 -65,38c-51,31 -158,90 -188,105c-14,6 -32,16 -40,21c-29,18 -147,71 -158,71c-6,0 -26,9 -44,20c-18,11 -39,20 -47,20c-7,0 -39,11 -70,24c-129,54 -222,65 -681,75c-815,19 -1236,21 -1360,7zm38,-2674c13,-8 81,-22 150,-32c163,-23 250,-53 316,-110c65,-56 163,-180 172,-217c4,-15 16,-46 27,-67c18,-37 19,-55 14,-235c-4,-178 -7,-203 -30,-266c-34,-96 -66,-167 -85,-188c-8,-9 -20,-26 -26,-36c-69,-117 -168,-230 -314,-356c-68,-58 -136,-88 -237,-104c-44,-7 -92,-20 -107,-27c-16,-8 -87,-19 -165,-25c-76,-6 -154,-14 -173,-19c-19,-5 -112,-15 -206,-21c-177,-13 -646,-1 -864,21c-52,6 -189,15 -305,21c-209,10 -287,17 -460,37c-49,6 -151,16 -225,22c-168,14 -323,43 -375,70c-21,11 -45,20 -52,20c-20,0 -196,181 -226,233c-51,87 -54,211 -7,292c10,17 21,41 25,54c4,12 18,39 31,60c191,294 442,518 744,666c41,20 86,42 100,50c14,7 45,18 70,25c25,6 52,18 60,25c8,7 31,16 50,20c19,3 55,12 80,19c98,29 426,66 665,76c88,4 423,6 745,6c466,-1 590,-4 608,-14z"/>
  </g>
 </g>
</svg>